#Comment line ignore any data following # character 
#Hierarchical Translation and Rotation (.htr) file 
[Header]	
#Header keywords are followed by a single value 
FileType HTR		#Single word string
DataType HTRS		#Translation followed by rotation and scale data
FileVersion 1		#integer
NumSegments 64		#integer
NumFrames 3		#integer
DataFrameRate 30		#integer, data frame rate in this file
EulerRotationOrder ZYX
CalibrationUnits mm
RotationUnits Degrees
GlobalAxisofGravity Y
BoneLengthAxis Y
ScaleFactor 1.00
[SegmentNames&Hierarchy]
#CHILD	PARENT
Pinger_Root GLOBAL
Pelvis Pinger_Root
L_Hip Pelvis
R_Hip Pelvis
Rear_Leg01 Pelvis
Spine1 Pelvis
L_Leg01 L_Hip
L_Leg02 L_Leg01
L_Leg03 L_Leg02
L_Foot L_Leg03
L_Toe1_01 L_Foot
L_Toe2_01 L_Foot
L_Toe3_01 L_Foot
planeAlignerLeft L_Foot
L_Toe1_02 L_Toe1_01
L_Toe1_03 L_Toe1_02
L_Toe2_02 L_Toe2_01
L_Toe2_03 L_Toe2_02
L_Toe3_02 L_Toe3_01
L_Toe3_03 L_Toe3_02
planeLockWeightLeft planeAlignerLeft
R_Leg01 R_Hip
R_Leg02 R_Leg01
R_Leg03 R_Leg02
R_Foot R_Leg03
planeAlignerRight R_Foot
R_Toe1_01 R_Foot
R_Toe2_01 R_Foot
R_Toe3_01 R_Foot
planeLockWeightRight planeAlignerRight
R_Toe1_02 R_Toe1_01
R_Toe1_03 R_Toe1_02
R_Toe2_02 R_Toe2_01
R_Toe2_03 R_Toe2_02
R_Toe3_02 R_Toe3_01
R_Toe3_03 R_Toe3_02
Rear_Leg02 Rear_Leg01
Rear_Leg03 Rear_Leg02
Rear_Leg04 Rear_Leg03
Rear_Foot Rear_Leg04
planeAlignerCenter Rear_Foot
Rear_Toe1_01 Rear_Foot
Rear_Toe2_01 Rear_Foot
Rear_Toe3_01 Rear_Foot
planeLockWeightCenter planeAlignerCenter
Rear_Toe1_02 Rear_Toe1_01
Rear_Toe1_03 Rear_Toe1_02
Rear_Toe2_02 Rear_Toe2_01
Rear_Toe2_03 Rear_Toe2_02
Rear_Toe3_02 Rear_Toe3_01
Rear_Toe3_03 Rear_Toe3_02
Back_Bone Spine1
Head Spine1
Motor_Bone Back_Bone
Ping_Mechanism Back_Bone
BN_LookIK Head
bottomMouth Head
L_Mouth01 Head
L_mouthFront Head
mouthGun Head
R_Mouth01 Head
R_mouthFront Head
TopMouth Head
weapon_bone Head
[BasePosition]
#SegmentName Tx, Ty, Tz, Rx, Ry, Rz, BoneLength
Pinger_Root 0.000000 0.000000 0.000000 -90.000000 0.000000 0.000000 10.000000 
Pelvis 0.000000 0.000000 0.000000 0.000000 0.000000 0.000000 10.000000 
L_Hip 0.000000 0.000000 0.000000 0.000000 0.000000 0.000000 10.000000 
R_Hip 0.000000 0.000000 0.000000 0.000000 0.000000 0.000000 10.000000 
Rear_Leg01 0.000000 0.000000 0.000000 0.000000 0.000000 0.000000 10.000000 
Spine1 0.000000 0.000000 0.000000 0.000000 0.000000 0.000000 10.000000 
L_Leg01 0.000000 0.000000 0.000000 0.000000 0.000000 0.000000 10.000000 
L_Leg02 0.000000 0.000000 0.000000 0.000000 0.000000 0.000000 10.000000 
L_Leg03 0.000000 0.000000 0.000000 0.000000 0.000000 0.000000 10.000000 
L_Foot 0.000000 0.000000 0.000000 0.000000 0.000000 0.000000 10.000000 
L_Toe1_01 0.000000 0.000000 0.000000 0.000000 0.000000 0.000000 10.000000 
L_Toe2_01 0.000000 0.000000 0.000000 0.000000 0.000000 0.000000 10.000000 
L_Toe3_01 0.000000 0.000000 0.000000 0.000000 0.000000 0.000000 10.000000 
planeAlignerLeft 0.000000 0.000000 0.000000 0.000000 0.000000 0.000000 10.000000 
L_Toe1_02 0.000000 0.000000 0.000000 0.000000 0.000000 0.000000 10.000000 
L_Toe1_03 0.000000 0.000000 0.000000 0.000000 0.000000 0.000000 10.000000 
L_Toe2_02 0.000000 0.000000 0.000000 0.000000 0.000000 0.000000 10.000000 
L_Toe2_03 0.000000 0.000000 0.000000 0.000000 0.000000 0.000000 10.000000 
L_Toe3_02 0.000000 0.000000 0.000000 0.000000 0.000000 0.000000 10.000000 
L_Toe3_03 0.000000 0.000000 0.000000 0.000000 0.000000 0.000000 10.000000 
planeLockWeightLeft 0.000000 0.000000 0.000000 0.000000 0.000000 0.000000 10.000000 
R_Leg01 0.000000 0.000000 0.000000 0.000000 0.000000 0.000000 10.000000 
R_Leg02 0.000000 0.000000 0.000000 0.000000 0.000000 0.000000 10.000000 
R_Leg03 0.000000 0.000000 0.000000 0.000000 0.000000 0.000000 10.000000 
R_Foot 0.000000 0.000000 0.000000 0.000000 0.000000 0.000000 10.000000 
planeAlignerRight 0.000000 0.000000 0.000000 0.000000 0.000000 0.000000 10.000000 
R_Toe1_01 0.000000 0.000000 0.000000 0.000000 0.000000 0.000000 10.000000 
R_Toe2_01 0.000000 0.000000 0.000000 0.000000 0.000000 0.000000 10.000000 
R_Toe3_01 0.000000 0.000000 0.000000 0.000000 0.000000 0.000000 10.000000 
planeLockWeightRight 0.000000 0.000000 0.000000 0.000000 0.000000 0.000000 10.000000 
R_Toe1_02 0.000000 0.000000 0.000000 0.000000 0.000000 0.000000 10.000000 
R_Toe1_03 0.000000 0.000000 0.000000 0.000000 0.000000 0.000000 10.000000 
R_Toe2_02 0.000000 0.000000 0.000000 0.000000 0.000000 0.000000 10.000000 
R_Toe2_03 0.000000 0.000000 0.000000 0.000000 0.000000 0.000000 10.000000 
R_Toe3_02 0.000000 0.000000 0.000000 0.000000 0.000000 0.000000 10.000000 
R_Toe3_03 0.000000 0.000000 0.000000 0.000000 0.000000 0.000000 10.000000 
Rear_Leg02 0.000000 0.000000 0.000000 0.000000 0.000000 0.000000 10.000000 
Rear_Leg03 0.000000 0.000000 0.000000 0.000000 0.000000 0.000000 10.000000 
Rear_Leg04 0.000000 0.000000 0.000000 0.000000 0.000000 0.000000 10.000000 
Rear_Foot 0.000000 0.000000 0.000000 0.000000 0.000000 0.000000 10.000000 
planeAlignerCenter 0.000000 0.000000 0.000000 0.000000 0.000000 0.000000 10.000000 
Rear_Toe1_01 0.000000 0.000000 0.000000 0.000000 0.000000 0.000000 10.000000 
Rear_Toe2_01 0.000000 0.000000 0.000000 0.000000 0.000000 0.000000 10.000000 
Rear_Toe3_01 0.000000 0.000000 0.000000 0.000000 0.000000 0.000000 10.000000 
planeLockWeightCenter 0.000000 0.000000 0.000000 0.000000 0.000000 0.000000 10.000000 
Rear_Toe1_02 0.000000 0.000000 0.000000 0.000000 0.000000 0.000000 10.000000 
Rear_Toe1_03 0.000000 0.000000 0.000000 0.000000 0.000000 0.000000 10.000000 
Rear_Toe2_02 0.000000 0.000000 0.000000 0.000000 0.000000 0.000000 10.000000 
Rear_Toe2_03 0.000000 0.000000 0.000000 0.000000 0.000000 0.000000 10.000000 
Rear_Toe3_02 0.000000 0.000000 0.000000 0.000000 0.000000 0.000000 10.000000 
Rear_Toe3_03 0.000000 0.000000 0.000000 0.000000 0.000000 0.000000 10.000000 
Back_Bone 0.000000 0.000000 0.000000 0.000000 0.000000 0.000000 10.000000 
Head 0.000000 0.000000 0.000000 0.000000 0.000000 0.000000 10.000000 
Motor_Bone 0.000000 0.000000 0.000000 0.000000 0.000000 0.000000 10.000000 
Ping_Mechanism 0.000000 0.000000 0.000000 0.000000 0.000000 0.000000 10.000000 
BN_LookIK 0.000000 0.000000 0.000000 0.000000 0.000000 0.000000 10.000000 
bottomMouth 0.000000 0.000000 0.000000 0.000000 0.000000 0.000000 10.000000 
L_Mouth01 0.000000 0.000000 0.000000 0.000000 0.000000 0.000000 10.000000 
L_mouthFront 0.000000 0.000000 0.000000 0.000000 0.000000 0.000000 10.000000 
mouthGun 0.000000 0.000000 0.000000 0.000000 0.000000 0.000000 10.000000 
R_Mouth01 0.000000 0.000000 0.000000 0.000000 0.000000 0.000000 10.000000 
R_mouthFront 0.000000 0.000000 0.000000 0.000000 0.000000 0.000000 10.000000 
TopMouth 0.000000 0.000000 0.000000 0.000000 0.000000 0.000000 10.000000 
weapon_bone 0.000000 0.000000 0.000000 0.000000 0.000000 0.000000 10.000000 
#Beginning of Data. Separated by tabs
#Fr	Tx	Ty	Tz	Rx	Ry	Rz	SF
[Pinger_Root]
121 0.000000 0.000000 0.000000 -0.000075 -0.000000 -0.000020 0.000000
122 0.000000 0.000000 0.000000 -0.000075 -0.000000 -0.000020 0.000000
123 0.000000 0.000000 0.000000 -0.000075 -0.000000 -0.000020 0.000000
[Pelvis]
121 72.227875 916.536316 4591.056641 -105.762871 -87.321976 98.153343 4682.206543
122 72.227875 916.536316 4598.563477 -114.630135 -88.248550 107.025490 4689.567383
123 72.227875 916.536194 4601.977539 -131.390045 -88.896057 123.792824 4692.915039
[L_Hip]
121 5.766392 125.831482 872.656799 160.158691 -45.484905 122.312202 881.701050
122 5.766392 125.831482 872.656799 160.158691 -45.484905 122.312202 881.701050
123 5.766392 125.831482 872.656799 160.158691 -45.484905 122.312202 881.701050
[R_Hip]
121 5.765438 125.836372 -872.654907 38.087841 49.812687 125.703735 881.699829
122 5.765438 125.836372 -872.654907 38.087841 49.812687 125.703735 881.699829
123 5.765438 125.836372 -872.654907 38.087841 49.812687 125.703735 881.699829
[Rear_Leg01]
121 -192.298416 -925.602966 -0.001907 169.652679 1.805526 -159.354736 945.367432
122 -192.298416 -925.602966 -0.001907 169.652496 1.808681 -158.294601 945.367432
123 -192.298416 -925.602966 -0.001907 169.651382 1.811175 -157.459549 945.367432
[Spine1]
121 290.604584 5.007505 0.000477 7.264215 -0.618500 20.653893 290.647736
122 290.604584 5.007505 0.000477 7.265587 -0.616768 21.638872 290.647736
123 290.604584 5.007505 0.000477 7.265128 -0.620427 22.401072 290.647736
[L_Leg01]
121 761.932007 -0.002384 -0.069261 24.971254 -13.277408 -17.827526 761.932068
122 761.932007 -0.002384 -0.069261 25.782074 -12.508542 -19.610563 761.932068
123 761.932007 -0.002384 -0.069261 26.349443 -11.936801 -20.878830 761.932068
[L_Leg02]
121 1441.140503 -0.000954 -0.000715 1.419634 -0.141084 -117.653069 1441.140503
122 1441.140503 -0.000954 -0.000715 1.292251 -0.134205 -116.379120 1441.140503
123 1441.140503 -0.000954 -0.000715 1.193128 -0.124178 -115.410812 1441.140503
[L_Leg03]
121 1686.963989 -0.000715 -0.000954 -0.022029 0.010601 116.619240 1686.963989
122 1686.963989 -0.000715 -0.000954 -0.021391 0.009524 116.481201 1686.963989
123 1686.963989 -0.000715 -0.000954 -0.020751 0.008447 116.343147 1686.963989
[L_Foot]
121 3041.570068 -30.715107 11.297464 2.163262 13.471902 53.304504 3041.746094
122 3041.570068 -30.715107 11.297464 2.161746 13.504300 53.121349 3041.746094
123 3041.570068 -30.715107 11.297464 2.160123 13.536690 52.938152 3041.746094
[L_Toe1_01]
121 -188.216690 -224.732346 -21.137953 93.745178 -6.824529 -172.243118 293.899567
122 -188.216690 -224.732346 -21.137953 93.763870 -6.791409 -172.462814 293.899567
123 -188.216690 -224.732346 -21.137953 93.782463 -6.758220 -172.682495 293.899567
[L_Toe2_01]
121 200.746536 -219.926590 148.838394 -90.144211 -26.322790 -52.398815 332.896027
122 200.746536 -219.926590 148.838394 -90.235802 -26.333725 -52.174702 332.896027
123 200.746536 -219.926590 148.838394 -90.327446 -26.344328 -51.950558 332.896027
[L_Toe3_01]
121 188.832520 -219.859131 -191.078659 -99.770515 13.943127 -67.422760 347.140900
122 188.832520 -219.859131 -191.078659 -99.755768 14.023478 -67.223907 347.140900
123 188.832520 -219.859131 -191.078659 -99.740738 14.103788 -67.024979 347.140900
[planeAlignerLeft]
121 33.626633 -589.755493 100.291870 169.308868 -76.308716 89.967422 599.166687
122 34.133831 -587.162354 99.659119 169.308716 -76.308121 89.967514 596.537292
123 34.641029 -584.569275 99.026360 169.308594 -76.307495 89.967567 593.908630
[L_Toe1_02]
121 413.761139 0.000477 0.000000 0.001384 -25.988886 0.001384 413.761139
122 413.761139 0.000477 0.000000 0.001384 -25.990299 0.001384 413.761139
123 413.761139 0.000477 0.000000 0.001384 -25.991720 0.001384 413.761139
[L_Toe1_03]
121 464.317322 0.000358 -0.000089 0.003766 53.682468 0.003766 464.317322
122 464.317322 0.000358 -0.000089 0.003792 53.939430 0.003792 464.317322
123 464.317322 0.000358 -0.000089 0.003818 54.196396 0.003818 464.317322
[L_Toe2_02]
121 342.235809 -0.000477 0.000238 0.001187 -72.487816 0.001187 342.235809
122 342.235809 -0.000477 0.000238 0.001187 -72.587067 0.001187 342.235809
123 342.235809 -0.000477 0.000238 0.001187 -72.686256 0.001187 342.235809
[L_Toe2_03]
121 420.210846 -0.000715 0.000000 0.031116 85.676910 0.031116 420.210846
122 420.210846 -0.000715 0.000000 0.032951 85.917686 0.032951 420.210846
123 420.210846 -0.000715 0.000000 0.035015 86.158401 0.035015 420.210846
[L_Toe3_02]
121 329.270111 0.000954 0.000000 0.001178 -80.591492 0.001178 329.270111
122 329.270111 0.000954 0.000000 0.001178 -80.609955 0.001178 329.270111
123 329.270111 0.000954 0.000000 0.001178 -80.674957 0.001178 329.270111
[L_Toe3_03]
121 439.137451 -0.001907 0.000954 -179.996124 78.287071 -179.992615 439.137451
122 439.137451 -0.001907 0.000954 -179.996246 78.032204 -179.992722 439.137451
123 439.137451 -0.001907 0.000954 -179.996353 77.777321 -179.992844 439.137451
[planeLockWeightLeft]
121 999.998962 0.098229 0.075960 -0.011826 -0.004376 0.005620 999.999023
122 999.998962 0.098231 0.075960 -0.011826 -0.004376 0.005620 999.999023
123 999.998962 0.098233 0.075959 -0.011826 -0.004376 0.005620 999.999023
[R_Leg01]
121 761.455627 -0.001907 -0.000358 119.505569 -1.835948 40.693829 761.455688
122 761.455627 -0.001907 -0.000358 119.178841 -0.328320 41.746452 761.455688
123 761.455627 -0.001907 -0.000358 118.956390 0.761297 42.490921 761.455688
[R_Leg02]
121 1441.140625 0.000000 -0.000238 -0.816092 -0.015650 -104.658340 1441.140625
122 1441.140625 0.000000 -0.000238 -0.760568 0.001542 -103.143524 1441.140625
123 1441.140625 0.000000 -0.000238 -0.718048 0.006472 -102.015511 1441.140625
[R_Leg03]
121 1686.963989 0.000954 0.001431 0.063225 -0.035013 127.516739 1686.963989
122 1686.963989 0.000954 0.001431 0.062614 -0.033314 127.112038 1686.963989
123 1686.963989 0.000954 0.001431 0.061991 -0.031619 126.707329 1686.963989
[R_Foot]
121 3041.560059 -30.531288 -11.204481 -1.193311 -24.861059 52.121624 3041.734131
122 3041.560059 -30.531288 -11.204481 -1.248192 -24.873852 51.888000 3041.734131
123 3041.560059 -30.531288 -11.204481 -1.303024 -24.886847 51.654346 3041.734131
[planeAlignerRight]
121 -126.433197 -570.797546 -312.028320 -36.613808 -71.381477 -64.315056 662.689148
122 -125.869843 -568.234436 -311.330566 -36.611610 -71.378937 -64.316742 660.045715
123 -125.306488 -565.671326 -310.632813 -36.609497 -71.376465 -64.318451 657.402832
[R_Toe1_01]
121 -188.383347 -224.864899 21.052242 76.775597 -0.486456 -173.007889 294.101532
122 -188.383347 -224.864899 21.052242 76.784950 -0.544694 -173.232224 294.101532
123 -188.383347 -224.864899 21.052242 76.794510 -0.602895 -173.456558 294.101532
[R_Toe2_01]
121 200.637817 -220.002121 -148.787384 -91.609909 32.909943 -58.920937 332.857574
122 200.637817 -220.002121 -148.787384 -91.500435 32.939438 -58.707485 332.857574
123 200.637817 -220.002121 -148.787384 -91.390831 32.968601 -58.493919 332.857574
[R_Toe3_01]
121 188.606735 -220.092957 191.126343 -73.200729 -8.547869 -73.535759 347.192566
122 188.606735 -220.092957 191.126343 -73.182861 -8.626734 -73.359917 347.192566
123 188.606735 -220.092957 191.126343 -73.165230 -8.705647 -73.184044 347.192566
[planeLockWeightRight]
121 999.999329 0.000000 0.075992 -0.011823 -0.004379 -0.000027 999.999329
122 999.999329 0.000000 0.075992 -0.011823 -0.004379 -0.000027 999.999329
123 999.999329 0.000000 0.075992 -0.011823 -0.004379 -0.000027 999.999329
[R_Toe1_02]
121 413.762085 0.000477 -0.000119 0.001395 -24.560177 0.001395 413.762085
122 413.762085 0.000477 -0.000119 0.001395 -24.549084 0.001395 413.762085
123 413.762085 0.000477 -0.000119 0.001395 -24.537998 0.001395 413.762085
[R_Toe1_03]
121 464.317810 0.000000 0.001088 0.006724 69.896782 0.006724 464.317810
122 464.317810 0.000000 0.001088 0.006806 70.140022 0.006806 464.317810
123 464.317810 0.000000 0.001088 0.006889 70.383247 0.006889 464.317810
[R_Toe2_02]
121 342.234741 -0.000954 0.000238 0.001197 -67.403656 0.001197 342.234741
122 342.234741 -0.000954 0.000238 0.001197 -67.550392 0.001197 342.234741
123 342.234741 -0.000954 0.000238 0.001196 -67.697182 0.001196 342.234741
[R_Toe2_03]
121 420.210846 0.000715 -0.000268 0.008413 73.962997 0.008413 420.210846
122 420.210846 0.000715 -0.000268 0.008564 74.245987 0.008564 420.210846
123 420.210846 0.000715 -0.000268 0.008719 74.528969 0.008719 420.210846
[R_Toe3_02]
121 329.270355 -0.000477 -0.000954 0.001184 -74.675186 0.001184 329.270355
122 329.270355 -0.000477 -0.000954 0.001184 -74.800690 0.001184 329.270355
123 329.270355 -0.000477 -0.000954 0.001184 -74.926163 0.001184 329.270355
[R_Toe3_03]
121 439.137939 0.000238 0.001431 -0.012104 83.635269 -0.008602 439.137939
122 439.137939 0.000238 0.001431 -0.012548 83.897316 -0.009046 439.137939
123 439.137939 0.000238 0.001431 -0.013244 84.267113 -0.009742 439.137939
[Rear_Leg02]
121 1162.777710 -0.029802 0.005960 0.354117 -2.967542 -118.084229 1162.777710
122 1162.777710 -0.029802 0.005960 0.363326 -2.965842 -118.265175 1162.777710
123 1162.777710 -0.029802 0.005960 0.372529 -2.964112 -118.446098 1162.777710
[Rear_Leg03]
121 607.192505 -0.013351 -0.073195 0.006509 -0.002002 62.410397 607.192505
122 607.192505 -0.013351 -0.073195 0.006508 -0.002004 62.447552 607.192505
123 607.192505 -0.013351 -0.073195 0.006508 -0.002007 62.484711 607.192505
[Rear_Leg04]
121 995.874512 -0.020504 -0.011921 -0.039993 -0.016495 54.444798 995.874573
122 995.874512 -0.020504 -0.011921 -0.040012 -0.016449 54.576454 995.874573
123 995.874512 -0.020504 -0.011921 -0.040031 -0.016403 54.708134 995.874573
[Rear_Foot]
121 3096.176270 -0.067472 -0.041425 -142.591141 85.801613 49.700264 3096.176270
122 3096.176270 -0.067472 -0.041425 -142.808868 85.790810 49.562065 3096.176270
123 3096.176270 -0.067472 -0.041425 -143.025757 85.779976 49.424797 3096.176270
[planeAlignerCenter]
121 1.038825 -14.622440 -774.441956 12.240773 -0.001473 179.998184 774.580688
122 1.038418 -14.327135 -773.082764 12.240773 -0.001473 179.998184 773.216248
123 1.038643 -13.770413 -770.515808 12.240773 -0.001473 179.998184 770.639526
[Rear_Toe1_01]
121 0.653352 83.966492 -371.173737 0.290512 41.783089 90.411293 380.553192
122 0.653352 83.966492 -371.173737 0.289551 41.626186 90.410645 380.553192
123 0.653352 83.966492 -371.173737 0.288594 41.469257 90.409988 380.553192
[Rear_Toe2_01]
121 178.200760 -294.826019 -362.060547 -5.764314 36.110210 -62.468227 499.765686
122 178.200760 -294.826019 -362.060547 -5.778269 36.003628 -62.459026 499.765686
123 178.200760 -294.826019 -362.060547 -5.792222 35.897034 -62.449795 499.765686
[Rear_Toe3_01]
121 -153.359680 -308.780914 -362.060852 2.268742 35.576542 -115.764442 499.952881
122 -153.359680 -308.780914 -362.060852 2.277064 35.472931 -115.772293 499.952881
123 -153.359680 -308.780914 -362.060852 2.285399 35.369297 -115.780136 499.952881
[planeLockWeightCenter]
121 1000.000244 0.000038 0.076247 -0.011814 -0.004373 -0.000015 1000.000244
122 1000.000244 0.000036 0.076247 -0.011814 -0.004373 -0.000015 1000.000244
123 1000.000244 0.000033 0.076247 -0.011814 -0.004373 -0.000015 1000.000244
[Rear_Toe1_02]
121 379.707825 0.194073 0.000477 -0.000245 -31.723019 0.006936 379.707855
122 379.707825 0.194073 0.000477 -0.000249 -31.770592 0.006938 379.707855
123 379.707825 0.194073 0.000477 -0.000252 -31.818176 0.006940 379.707855
[Rear_Toe1_03]
121 500.129700 0.165701 0.000119 -0.000071 52.220131 0.007321 500.129761
122 500.129700 0.165701 0.000119 -0.000044 52.471775 0.007341 500.129761
123 500.129700 0.165701 0.000119 -0.000018 52.723427 0.007362 500.129761
[Rear_Toe2_02]
121 340.494507 0.000238 -0.000954 0.001178 -80.350822 0.001178 340.494507
122 340.494507 0.000238 -0.000954 0.001178 -80.442619 0.001178 340.494507
123 340.494507 0.000238 -0.000954 0.001178 -80.534340 0.001178 340.494507
[Rear_Toe2_03]
121 433.103577 0.000000 0.000238 0.079929 88.316925 0.079929 433.103546
122 433.103577 0.000000 0.000238 0.089992 88.505371 0.089992 433.103546
123 433.103577 0.000000 0.000238 0.102955 88.693588 0.102955 433.103546
[Rear_Toe3_02]
121 340.494141 -0.000358 -0.000477 0.001179 -78.972610 0.001179 340.494171
122 340.494141 -0.000358 -0.000477 0.001179 -79.056145 0.001179 340.494171
123 340.494141 -0.000358 -0.000477 0.001179 -79.139603 0.001179 340.494171
[Rear_Toe3_03]
121 433.103577 0.001431 -0.000238 -0.016357 85.489944 -0.012857 433.103546
122 433.103577 0.001431 -0.000238 -0.017041 85.691879 -0.013542 433.103546
123 433.103577 0.001431 -0.000238 -0.017792 85.893822 -0.014293 433.103546
[Back_Bone]
121 1312.175781 -701.934692 0.000954 1.476519 0.000059 -86.564804 1488.125488
122 1312.175781 -701.934692 0.000954 1.476300 0.001559 -87.223808 1488.125488
123 1312.175781 -701.934692 0.000954 1.476140 -0.001555 -87.524857 1488.125488
[Head]
121 1406.159424 809.709290 0.001431 -0.001545 -1.475044 7.246612 1622.625488
122 1406.159424 809.709290 0.001431 -0.002034 -1.474981 7.207957 1622.625488
123 1406.159424 809.709290 0.001431 -0.000184 -1.474983 7.064241 1622.625488
[Motor_Bone]
121 1158.364380 -417.834747 0.000477 -0.095385 0.076104 -105.915695 1231.419434
122 1158.364380 -417.834747 0.000477 -0.095385 0.076104 -105.915703 1231.419434
123 1158.364380 -417.834747 0.000477 -0.095385 0.076104 -105.915703 1231.419434
[Ping_Mechanism]
121 1227.780640 -438.993591 -1.205611 0.000103 -0.000053 82.120995 1303.902710
122 1223.617432 -437.081818 -1.821140 0.000103 -0.000053 82.120995 1299.339600
123 1219.454224 -435.169952 -2.436673 0.000103 -0.000053 82.120995 1294.776855
[BN_LookIK]
121 193.241119 1380.371704 -0.002861 0.000000 89.965736 -31.038179 1393.832153
122 193.241119 1380.371704 -0.002861 0.000000 89.965736 -31.038179 1393.832153
123 193.241119 1380.371704 -0.002861 0.000000 89.965736 -31.038179 1393.832153
[bottomMouth]
121 -435.092926 615.759399 -0.000954 -0.000022 0.000016 73.527184 753.966492
122 -435.092926 615.759399 -0.000954 -0.000022 0.000016 73.527184 753.966492
123 -435.092926 615.759399 -0.000954 -0.000022 0.000016 73.527184 753.966492
[L_Mouth01]
121 554.440979 7.658243 838.222046 150.204178 23.759130 109.605339 1005.027161
122 554.440979 7.658243 838.222046 150.204178 23.759130 109.605339 1005.027161
123 554.440979 7.658243 838.222046 150.204178 23.759130 109.605339 1005.027161
[L_mouthFront]
121 551.629089 934.514771 339.150421 0.000081 2.804060 79.119301 1136.941284
122 551.629089 934.514771 339.150421 0.000081 2.804060 79.119301 1136.941284
123 551.629089 934.514771 339.150421 0.000081 2.804060 79.119301 1136.941284
[mouthGun]
121 55.332661 1627.420898 0.000000 0.000023 0.000009 -11.038128 1628.361328
122 55.332661 1627.420898 0.000000 0.000023 0.000009 -11.038128 1628.361328
123 55.332661 1627.420898 0.000000 0.000023 0.000009 -11.038128 1628.361328
[R_Mouth01]
121 554.442383 7.659197 -838.223938 29.795891 -23.759109 109.605331 1005.029541
122 554.442383 7.659197 -838.223938 29.795891 -23.759109 109.605331 1005.029541
123 554.442383 7.659197 -838.223938 29.795891 -23.759109 109.605331 1005.029541
[R_mouthFront]
121 551.629089 934.514282 -339.151367 0.000029 -2.803930 79.119133 1136.941162
122 551.629089 934.514282 -339.151367 0.000029 -2.803930 79.119133 1136.941162
123 551.629089 934.514282 -339.151367 0.000029 -2.803930 79.119133 1136.941162
[TopMouth]
121 461.269867 -56.106091 -0.008583 -0.000059 -0.000268 92.025169 464.669525
122 461.269867 -56.106091 -0.008583 -0.000059 -0.000268 92.025169 464.669525
123 461.269867 -56.106091 -0.008583 -0.000059 -0.000268 92.025169 464.669525
[weapon_bone]
121 -987.239868 1448.372803 0.001431 0.000000 89.965736 -31.038221 1752.833740
122 -987.239868 1448.372803 0.001431 0.000000 89.965736 -31.038221 1752.833740
123 -987.239868 1448.372803 0.001431 0.000000 89.965736 -31.038221 1752.833740
